<?xml version="1.0" encoding="UTF-8" standalone="no"?>
<!-- Created with Inkscape (http://www.inkscape.org/) -->

<svg
   xmlns:dc="http://purl.org/dc/elements/1.1/"
   xmlns:cc="http://creativecommons.org/ns#"
   xmlns:rdf="http://www.w3.org/1999/02/22-rdf-syntax-ns#"
   xmlns:svg="http://www.w3.org/2000/svg"
   xmlns="http://www.w3.org/2000/svg"
   xmlns:sodipodi="http://sodipodi.sourceforge.net/DTD/sodipodi-0.dtd"
   xmlns:inkscape="http://www.inkscape.org/namespaces/inkscape"
   width="409.95398"
   height="98.049217"
   id="svg6946"
   version="1.1"
   inkscape:version="0.48.5 r10040"
   sodipodi:docname="New document 14">
  <defs
     id="defs6948">
    <clipPath
       clipPathUnits="userSpaceOnUse"
       id="clipPath6456">
      <path
         inkscape:connector-curvature="0"
         d="m 0,0 355.08,0 0,81.02 L 0,81.02 0,0 z"
         id="path6458" />
    </clipPath>
  </defs>
  <sodipodi:namedview
     id="base"
     pagecolor="#ffffff"
     bordercolor="#666666"
     borderopacity="1.0"
     inkscape:pageopacity="0.0"
     inkscape:pageshadow="2"
     inkscape:zoom="0.35"
     inkscape:cx="-60.047145"
     inkscape:cy="54.734624"
     inkscape:document-units="px"
     inkscape:current-layer="layer1"
     showgrid="false"
     fit-margin-top="5"
     fit-margin-left="5"
     fit-margin-right="5"
     fit-margin-bottom="5"
     inkscape:window-width="1280"
     inkscape:window-height="778"
     inkscape:window-x="0"
     inkscape:window-y="0"
     inkscape:window-maximized="1" />
  <metadata
     id="metadata6951">
    <rdf:RDF>
      <cc:Work
         rdf:about="">
        <dc:format>image/svg+xml</dc:format>
        <dc:type
           rdf:resource="http://purl.org/dc/dcmitype/StillImage" />
        <dc:title></dc:title>
      </cc:Work>
    </rdf:RDF>
  </metadata>
  <g
     inkscape:label="Layer 1"
     inkscape:groupmode="layer"
     id="layer1"
     transform="translate(47.809998,-489.04759)">
    <g
       id="g6450"
       transform="matrix(5.5632452,0,0,-1.2521371,-43.407287,582.65121)">
      <g
         id="g6452"
         transform="scale(0.20277,0.88867)">
        <g
           id="g6454"
           clip-path="url(#clipPath6456)">
          <path
             d="m 118.38,39.607 118.86,0 0,1.0978 -118.86,0 0,-1.0978 z"
             style="fill:#3771c8;fill-opacity:1;fill-rule:evenodd;stroke:#3771c8;stroke-width:0.14;stroke-linecap:round;stroke-linejoin:round;stroke-miterlimit:10;stroke-opacity:1;stroke-dasharray:none"
             id="path6460"
             inkscape:connector-curvature="0" />
          <path
             d="m 148.85,61.369 0,-6.514 3.02,0 0.64,0.098 0.44,0.097 0.32,0.22 0.31,0.341 0.34,0.22 0.32,0.317 0.22,0.439 0.1,0.317 0.12,0.439 0,0.537 -0.12,1.098 -0.32,0.878 -0.54,0.635 -1.19,0.658 -1.51,0.22 -2.15,0 z m -1.51,1.415 3.66,0 1.63,-0.098 1.29,-0.439 0.96,-0.659 0.75,-0.878 0.54,-0.854 0.22,-1.098 0,-1.073 -0.22,-1.098 -0.42,-0.976 -0.75,-0.878 -0.88,-0.659 -1.17,-0.414 1.51,-1.757 1.39,-1.854 2.59,-3.806 -1.73,-0.439 -0.2,0.22 -0.12,0.341 -0.44,0.659 -0.2,0.415 -0.34,0.561 -0.41,0.536 -0.54,0.879 -0.66,0.853 -0.41,0.659 -0.44,0.537 -0.32,0.439 -0.66,0.659 -0.63,0.536 -0.66,0.44 -1.83,0 0,-7.514 -1.51,-0.098 0,16.858 z m 55.01,0.317 1.1,-0.098 0.95,-0.317 0.88,-0.439 0.85,-0.659 0.44,-0.439 0.32,-0.537 0.31,-0.658 0.22,-1.074 0.1,-1.097 0,-0.537 -0.22,-1.098 -0.41,-1.098 -0.32,-0.415 -0.88,-1.537 -0.41,-0.536 -0.34,-0.439 -0.32,-0.318 -0.86,-1.097 -0.97,-1.074 -0.86,-1.098 -0.97,-1.097 7.32,0 -0.1,-1.513 -10.44,0 0,0.317 1.49,1.635 1.51,1.537 1.41,1.512 1.3,1.732 0.53,0.561 0.86,1.293 0.63,1.318 0.22,0.634 0.12,0.439 0.1,0.342 0,0.756 -0.1,0.976 -0.34,0.756 -0.19,0.439 -0.22,0.318 -0.32,0.341 -0.34,0.22 -0.54,0.219 -0.41,0.22 -0.56,0.097 -0.86,0 -0.85,-0.097 -0.54,-0.22 -0.54,-0.341 -0.43,-0.439 -0.54,-0.757 -0.54,-0.976 -1.19,0.659 0.44,1.074 0.31,0.439 0.22,0.341 0.66,0.634 0.95,0.659 0.76,0.342 0.88,0.097 0.73,0.098 z m -12.37,0 1.29,-0.098 1.08,-0.317 0.63,-0.341 0.56,-0.44 0.42,-0.536 0.31,-0.317 0.22,-0.44 0.13,-0.439 0.22,-0.439 0.09,-0.854 -0.09,-1 -0.35,-0.854 -0.53,-0.878 -0.76,-0.659 -0.95,-0.536 1.07,-0.537 0.86,-0.756 0.53,-0.879 0.32,-0.976 0.22,-1.097 -0.1,-1.074 -0.31,-1.098 -0.57,-0.878 -0.73,-0.756 -0.97,-0.659 -1.2,-0.439 -1.39,-0.195 -0.66,0.097 -0.63,0 -1.61,0.537 -0.44,0.22 -0.76,0.756 -0.53,0.439 0.85,1.317 0.34,-0.439 0.85,-0.658 0.44,-0.22 0.96,-0.439 1.09,-0.098 0.54,0 0.85,0.22 0.86,0.439 0.31,0.22 0.66,0.634 0.22,0.439 0.22,0.659 0.1,0.439 0,0.439 -0.1,0.976 -0.34,0.756 -0.41,0.659 -0.66,0.439 -0.42,0.22 -0.56,0.195 -0.54,0.122 -0.85,0.097 -0.85,0 0,1.415 1.51,0.22 1.07,0.341 0.64,0.318 0.85,0.878 0.22,0.439 0.12,0.537 0,0.854 -0.12,0.341 -0.22,0.317 -0.1,0.342 -0.31,0.415 -0.86,0.658 -0.88,0.342 -0.85,0.097 -1.07,-0.097 -0.88,-0.342 -0.85,-0.537 -0.86,-0.658 -0.54,1.317 0.86,0.854 1.07,0.561 1.2,0.317 1.07,0.098 z m -12.71,0 1.07,-0.098 0.98,-0.317 0.85,-0.439 0.44,-0.342 0.64,-0.634 0.34,-0.439 0.41,-0.878 0.34,-1.074 0.1,-1.097 -0.1,-0.757 -0.12,-0.878 -0.41,-1.098 -0.34,-0.415 -0.42,-0.78 -0.53,-0.757 -0.44,-0.756 -0.54,-0.537 -0.98,-1.097 -0.85,-1.074 -1.95,-2.195 7.44,0 -0.22,-1.513 -10.34,0 0,0.317 1.51,1.635 2.8,3.049 1.39,1.732 0.44,0.561 1.3,1.952 0.31,0.659 0.22,0.634 0.1,0.561 0.12,0.439 0,0.537 -0.12,0.976 -0.32,0.756 -0.22,0.439 -0.63,0.659 -0.32,0.22 -0.75,0.317 -0.76,0.219 -1.07,0 -0.54,-0.097 -0.54,-0.22 -0.53,-0.341 -0.44,-0.439 -0.66,-0.757 -0.42,-0.976 -1.19,0.659 0.44,1.074 0.97,1.317 0.86,0.659 1.07,0.439 0.76,0.097 0.85,0.098 z m -12.27,0 0.98,0 1.07,-0.098 0.97,-0.317 0.86,-0.439 0.85,-0.756 -0.53,-1.415 -1.71,1.073 -0.98,0.342 -0.97,0.097 -1.3,-0.219 -0.41,-0.098 -0.98,-0.659 -0.44,-0.658 -0.22,-1.293 0.13,-0.976 0.41,-0.781 0.44,-0.317 1.07,-0.659 1.95,-0.756 1.08,-0.439 0.85,-0.439 0.86,-0.634 0.34,-0.342 0.31,-0.439 0.44,-1.074 0.2,-1.317 -0.1,-1.195 -0.44,-1.074 -0.95,-1.317 -0.44,-0.317 -0.85,-0.561 -2.17,-0.415 -1.08,0.097 -1.07,0.22 -1.07,0.537 -0.86,0.561 -0.88,0.854 0.66,1.537 0.86,-0.879 0.97,-0.658 1.08,-0.439 1.19,-0.22 0.54,0 0.85,0.22 0.32,0.121 0.44,0.22 0.32,0.317 0.31,0.22 0.22,0.317 0.22,0.439 0.1,0.342 0.12,0.414 0,0.561 -0.12,0.976 -0.42,0.757 -0.43,0.439 -1.08,0.658 -1.93,0.757 -1.09,0.439 -0.95,0.439 -0.44,0.195 -0.76,0.781 -0.32,0.439 -0.44,0.976 -0.09,1.293 0.09,1.098 0.32,0.975 0.22,0.44 0.34,0.439 0.32,0.317 0.41,0.317 0.88,0.439 0.95,0.439 0.98,0.098 z"
             style="fill:#3771c8;fill-opacity:1;fill-rule:evenodd;stroke:#3771c8;stroke-width:0.14;stroke-linecap:round;stroke-linejoin:round;stroke-miterlimit:10;stroke-opacity:1;stroke-dasharray:none"
             id="path6462"
             inkscape:connector-curvature="0" />
          <path
             d="m 13.747,79.544 91.503,0 2.59,-0.342 2.46,-0.853 2.27,-1.318 1.93,-1.732 1.64,-2.171 1.17,-2.513 0.87,-2.708 0.2,-2.952 0,-49.817 -0.2,-2.928 -0.87,-2.7321 -1.17,-2.4884 -1.64,-2.1956 -1.93,-1.7322 -2.27,-1.293 -2.46,-0.87824 -2.59,-0.31714 -91.503,0 L 11.063,0.89046 8.575,1.7687 6.4282,3.0617 4.379,4.7939 2.8665,6.9895 1.5735,9.4779 0.81725,12.21 l -0.21956,2.928 0,49.817 0.21956,2.952 0.75625,2.708 1.293,2.513 1.5125,2.171 2.0492,1.732 2.1468,1.318 2.488,0.853 2.684,0.342 z"
             style="fill:#3771c8;fill-opacity:1;fill-rule:evenodd;stroke:#3771c8;stroke-width:0.14;stroke-linecap:round;stroke-linejoin:round;stroke-miterlimit:10;stroke-opacity:1;stroke-dasharray:none"
             id="path6464"
             inkscape:connector-curvature="0" />
          <path
             d="m 13.747,79.544 91.503,0"
             style="fill:none;stroke:#000000;stroke-width:0.14;stroke-linecap:round;stroke-linejoin:round;stroke-miterlimit:10;stroke-opacity:1;stroke-dasharray:none"
             id="path6466"
             inkscape:connector-curvature="0" />
          <path
             d="m 105.25,79.544 2.59,-0.342"
             style="fill:none;stroke:#000000;stroke-width:0.14;stroke-linecap:round;stroke-linejoin:round;stroke-miterlimit:10;stroke-opacity:1;stroke-dasharray:none"
             id="path6468"
             inkscape:connector-curvature="0" />
          <path
             d="m 107.84,79.202 2.46,-0.853"
             style="fill:none;stroke:#000000;stroke-width:0.14;stroke-linecap:round;stroke-linejoin:round;stroke-miterlimit:10;stroke-opacity:1;stroke-dasharray:none"
             id="path6470"
             inkscape:connector-curvature="0" />
          <path
             d="m 110.3,78.349 2.27,-1.318"
             style="fill:none;stroke:#000000;stroke-width:0.14;stroke-linecap:round;stroke-linejoin:round;stroke-miterlimit:10;stroke-opacity:1;stroke-dasharray:none"
             id="path6472"
             inkscape:connector-curvature="0" />
          <path
             d="m 112.57,77.031 1.93,-1.732"
             style="fill:none;stroke:#000000;stroke-width:0.14;stroke-linecap:round;stroke-linejoin:round;stroke-miterlimit:10;stroke-opacity:1;stroke-dasharray:none"
             id="path6474"
             inkscape:connector-curvature="0" />
          <path
             d="m 114.5,75.299 1.64,-2.171"
             style="fill:none;stroke:#000000;stroke-width:0.14;stroke-linecap:round;stroke-linejoin:round;stroke-miterlimit:10;stroke-opacity:1;stroke-dasharray:none"
             id="path6476"
             inkscape:connector-curvature="0" />
          <path
             d="m 116.14,73.128 1.17,-2.513"
             style="fill:none;stroke:#000000;stroke-width:0.14;stroke-linecap:round;stroke-linejoin:round;stroke-miterlimit:10;stroke-opacity:1;stroke-dasharray:none"
             id="path6478"
             inkscape:connector-curvature="0" />
          <path
             d="m 117.31,70.615 0.87,-2.708"
             style="fill:none;stroke:#000000;stroke-width:0.14;stroke-linecap:round;stroke-linejoin:round;stroke-miterlimit:10;stroke-opacity:1;stroke-dasharray:none"
             id="path6480"
             inkscape:connector-curvature="0" />
          <path
             d="m 118.18,67.907 0.2,-2.952"
             style="fill:none;stroke:#000000;stroke-width:0.14;stroke-linecap:round;stroke-linejoin:round;stroke-miterlimit:10;stroke-opacity:1;stroke-dasharray:none"
             id="path6482"
             inkscape:connector-curvature="0" />
          <path
             d="m 118.38,64.955 0,-49.817"
             style="fill:none;stroke:#000000;stroke-width:0.14;stroke-linecap:round;stroke-linejoin:round;stroke-miterlimit:10;stroke-opacity:1;stroke-dasharray:none"
             id="path6484"
             inkscape:connector-curvature="0" />
          <path
             d="m 118.38,15.138 -0.2,-2.928"
             style="fill:none;stroke:#000000;stroke-width:0.14;stroke-linecap:round;stroke-linejoin:round;stroke-miterlimit:10;stroke-opacity:1;stroke-dasharray:none"
             id="path6486"
             inkscape:connector-curvature="0" />
          <path
             d="M 118.18,12.21 117.31,9.4779"
             style="fill:none;stroke:#000000;stroke-width:0.14;stroke-linecap:round;stroke-linejoin:round;stroke-miterlimit:10;stroke-opacity:1;stroke-dasharray:none"
             id="path6488"
             inkscape:connector-curvature="0" />
          <path
             d="M 117.31,9.4779 116.14,6.9895"
             style="fill:none;stroke:#000000;stroke-width:0.14;stroke-linecap:round;stroke-linejoin:round;stroke-miterlimit:10;stroke-opacity:1;stroke-dasharray:none"
             id="path6490"
             inkscape:connector-curvature="0" />
          <path
             d="M 116.14,6.9895 114.5,4.7939"
             style="fill:none;stroke:#000000;stroke-width:0.14;stroke-linecap:round;stroke-linejoin:round;stroke-miterlimit:10;stroke-opacity:1;stroke-dasharray:none"
             id="path6492"
             inkscape:connector-curvature="0" />
          <path
             d="M 114.5,4.7939 112.57,3.0617"
             style="fill:none;stroke:#000000;stroke-width:0.14;stroke-linecap:round;stroke-linejoin:round;stroke-miterlimit:10;stroke-opacity:1;stroke-dasharray:none"
             id="path6494"
             inkscape:connector-curvature="0" />
          <path
             d="M 112.57,3.0617 110.3,1.7687"
             style="fill:none;stroke:#000000;stroke-width:0.14;stroke-linecap:round;stroke-linejoin:round;stroke-miterlimit:10;stroke-opacity:1;stroke-dasharray:none"
             id="path6496"
             inkscape:connector-curvature="0" />
          <path
             d="M 110.3,1.7687 107.84,0.89046"
             style="fill:none;stroke:#000000;stroke-width:0.14;stroke-linecap:round;stroke-linejoin:round;stroke-miterlimit:10;stroke-opacity:1;stroke-dasharray:none"
             id="path6498"
             inkscape:connector-curvature="0" />
          <path
             d="M 107.84,0.89046 105.25,0.57332"
             style="fill:none;stroke:#000000;stroke-width:0.14;stroke-linecap:round;stroke-linejoin:round;stroke-miterlimit:10;stroke-opacity:1;stroke-dasharray:none"
             id="path6500"
             inkscape:connector-curvature="0" />
          <path
             d="m 105.25,0.57332 -91.503,0"
             style="fill:none;stroke:#000000;stroke-width:0.14;stroke-linecap:round;stroke-linejoin:round;stroke-miterlimit:10;stroke-opacity:1;stroke-dasharray:none"
             id="path6502"
             inkscape:connector-curvature="0" />
          <path
             d="M 13.747,0.57332 11.063,0.89046"
             style="fill:none;stroke:#000000;stroke-width:0.14;stroke-linecap:round;stroke-linejoin:round;stroke-miterlimit:10;stroke-opacity:1;stroke-dasharray:none"
             id="path6504"
             inkscape:connector-curvature="0" />
          <path
             d="M 11.063,0.89046 8.575,1.7687"
             style="fill:none;stroke:#000000;stroke-width:0.14;stroke-linecap:round;stroke-linejoin:round;stroke-miterlimit:10;stroke-opacity:1;stroke-dasharray:none"
             id="path6506"
             inkscape:connector-curvature="0" />
          <path
             d="M 8.575,1.7687 6.4282,3.0617"
             style="fill:none;stroke:#000000;stroke-width:0.14;stroke-linecap:round;stroke-linejoin:round;stroke-miterlimit:10;stroke-opacity:1;stroke-dasharray:none"
             id="path6508"
             inkscape:connector-curvature="0" />
          <path
             d="M 6.4282,3.0617 4.379,4.7939"
             style="fill:none;stroke:#000000;stroke-width:0.14;stroke-linecap:round;stroke-linejoin:round;stroke-miterlimit:10;stroke-opacity:1;stroke-dasharray:none"
             id="path6510"
             inkscape:connector-curvature="0" />
          <path
             d="M 4.379,4.7939 2.8665,6.9895"
             style="fill:none;stroke:#000000;stroke-width:0.14;stroke-linecap:round;stroke-linejoin:round;stroke-miterlimit:10;stroke-opacity:1;stroke-dasharray:none"
             id="path6512"
             inkscape:connector-curvature="0" />
          <path
             d="M 2.8665,6.9895 1.5735,9.4779"
             style="fill:none;stroke:#000000;stroke-width:0.14;stroke-linecap:round;stroke-linejoin:round;stroke-miterlimit:10;stroke-opacity:1;stroke-dasharray:none"
             id="path6514"
             inkscape:connector-curvature="0" />
          <path
             d="M 1.5735,9.4779 0.81725,12.21"
             style="fill:none;stroke:#000000;stroke-width:0.14;stroke-linecap:round;stroke-linejoin:round;stroke-miterlimit:10;stroke-opacity:1;stroke-dasharray:none"
             id="path6516"
             inkscape:connector-curvature="0" />
          <path
             d="M 0.81725,12.21 0.59769,15.138"
             style="fill:none;stroke:#000000;stroke-width:0.14;stroke-linecap:round;stroke-linejoin:round;stroke-miterlimit:10;stroke-opacity:1;stroke-dasharray:none"
             id="path6518"
             inkscape:connector-curvature="0" />
          <path
             d="m 0.59769,15.138 0,49.817"
             style="fill:none;stroke:#000000;stroke-width:0.14;stroke-linecap:round;stroke-linejoin:round;stroke-miterlimit:10;stroke-opacity:1;stroke-dasharray:none"
             id="path6520"
             inkscape:connector-curvature="0" />
          <path
             d="m 0.59769,64.955 0.21956,2.952"
             style="fill:none;stroke:#000000;stroke-width:0.14;stroke-linecap:round;stroke-linejoin:round;stroke-miterlimit:10;stroke-opacity:1;stroke-dasharray:none"
             id="path6522"
             inkscape:connector-curvature="0" />
          <path
             d="M 0.81725,67.907 1.5735,70.615"
             style="fill:none;stroke:#000000;stroke-width:0.14;stroke-linecap:round;stroke-linejoin:round;stroke-miterlimit:10;stroke-opacity:1;stroke-dasharray:none"
             id="path6524"
             inkscape:connector-curvature="0" />
          <path
             d="m 1.5735,70.615 1.293,2.513"
             style="fill:none;stroke:#000000;stroke-width:0.14;stroke-linecap:round;stroke-linejoin:round;stroke-miterlimit:10;stroke-opacity:1;stroke-dasharray:none"
             id="path6526"
             inkscape:connector-curvature="0" />
          <path
             d="M 2.8665,73.128 4.379,75.299"
             style="fill:none;stroke:#000000;stroke-width:0.14;stroke-linecap:round;stroke-linejoin:round;stroke-miterlimit:10;stroke-opacity:1;stroke-dasharray:none"
             id="path6528"
             inkscape:connector-curvature="0" />
          <path
             d="m 4.379,75.299 2.0492,1.732"
             style="fill:none;stroke:#000000;stroke-width:0.14;stroke-linecap:round;stroke-linejoin:round;stroke-miterlimit:10;stroke-opacity:1;stroke-dasharray:none"
             id="path6530"
             inkscape:connector-curvature="0" />
          <path
             d="M 6.4282,77.031 8.575,78.349"
             style="fill:none;stroke:#000000;stroke-width:0.14;stroke-linecap:round;stroke-linejoin:round;stroke-miterlimit:10;stroke-opacity:1;stroke-dasharray:none"
             id="path6532"
             inkscape:connector-curvature="0" />
          <path
             d="m 8.575,78.349 2.488,0.853"
             style="fill:none;stroke:#000000;stroke-width:0.14;stroke-linecap:round;stroke-linejoin:round;stroke-miterlimit:10;stroke-opacity:1;stroke-dasharray:none"
             id="path6534"
             inkscape:connector-curvature="0" />
          <path
             d="m 11.063,79.202 2.684,0.342"
             style="fill:none;stroke:#000000;stroke-width:0.14;stroke-linecap:round;stroke-linejoin:round;stroke-miterlimit:10;stroke-opacity:1;stroke-dasharray:none"
             id="path6536"
             inkscape:connector-curvature="0" />
          <path
             d="m 43.339,50.268 0,-10.539 1.293,0.098 1.512,0.219 1.513,0.342 1.39,0.537 1.293,0.658 1.074,0.976 0.756,1.196 0.22,1.415 -0.098,1.073 -0.22,0.976 -0.219,0.439 -0.634,0.878 -0.757,0.757 -0.536,0.341 -1.635,0.537 -1.073,0.097 -3.879,0 z m -2.245,2.172 5.587,0 1.732,-0.098 1.513,-0.219 1.488,-0.537 1.195,-0.756 0.976,-1.098 0.756,-1.196 0.415,-1.512 0.219,-1.854 -0.097,-1.415 -0.439,-1.196 -0.635,-1.098 -1.292,-1.293 -1.635,-1.097 -1.708,-0.757 -1.951,-0.439 -2.05,-0.317 -1.707,-0.122 0,-9.563 -2.367,-0.342 0,24.909 z m 30.031,0.439 1.61,-0.098 1.733,-0.341 1.61,-0.415 1.512,-0.781 0.22,-2.83 -1.635,0.879 -1.707,0.658 -1.83,0.537 -1.732,0.122 -1.61,-0.122 -1.513,-0.317 -1.293,-0.439 -1.829,-1.098 -1.391,-1.293 -1.073,-1.635 -0.757,-1.732 -0.536,-1.976 -0.122,-1.952 0.122,-1.951 0.536,-1.952 0.757,-1.756 1.073,-1.635 1.391,-1.293 1.829,-1.098 2.049,-0.634 2.367,-0.22 1.829,0.098 1.83,0.537 1.732,0.658 1.61,0.976 -0.219,-2.83 -1.513,-0.756 -1.707,-0.537 -1.733,-0.341 -1.61,-0.098 -2.683,0.22 -2.489,0.756 -1.512,0.659 -1.391,0.878 -1.195,1.073 -1.488,1.854 -1.195,2.172 -0.757,2.512 -0.219,2.83 0.219,2.489 0.878,2.513 1.171,2.171 1.513,1.854 1.927,1.513 2.269,1.195 2.366,0.756 2.586,0.22 z"
             style="fill:#ffffff;fill-opacity:1;fill-rule:evenodd;stroke:#ffffff;stroke-width:0.14;stroke-linecap:round;stroke-linejoin:round;stroke-miterlimit:10;stroke-opacity:1;stroke-dasharray:none"
             id="path6538"
             inkscape:connector-curvature="0" />
          <path
             d="m 249.31,73.006 92.36,0 2.69,-0.22 2.48,-0.756 2.37,-1.074 1.93,-1.536 1.61,-1.733 1.19,-2.073 0.86,-2.294 0.22,-2.488 0,-41.571 -0.22,-2.489 -0.86,-2.293 -1.19,-2.049 -1.61,-1.757 -1.93,-1.5122 -2.37,-1.0978 -2.48,-0.7563 -2.69,-0.2196 -92.36,0 -2.71,0.2196 -2.46,0.7563 -2.37,1.0978 -1.95,1.5122 -1.61,1.757 -1.19,2.049 -0.86,2.293 -0.22,2.489 0,41.571 0.22,2.488 0.86,2.294 1.19,2.073 1.61,1.733 1.95,1.536 2.37,1.074 2.46,0.756 2.71,0.22 z"
             style="fill:#3771c8;fill-opacity:1;fill-rule:evenodd;stroke:#3771c8;stroke-width:0.14;stroke-linecap:round;stroke-linejoin:round;stroke-miterlimit:10;stroke-opacity:1;stroke-dasharray:none"
             id="path6540"
             inkscape:connector-curvature="0" />
          <path
             d="m 249.31,73.006 92.36,0"
             style="fill:none;stroke:#000000;stroke-width:0.14;stroke-linecap:round;stroke-linejoin:round;stroke-miterlimit:10;stroke-opacity:1;stroke-dasharray:none"
             id="path6542"
             inkscape:connector-curvature="0" />
          <path
             d="m 341.67,73.006 2.69,-0.22"
             style="fill:none;stroke:#000000;stroke-width:0.14;stroke-linecap:round;stroke-linejoin:round;stroke-miterlimit:10;stroke-opacity:1;stroke-dasharray:none"
             id="path6544"
             inkscape:connector-curvature="0" />
          <path
             d="m 344.36,72.786 2.48,-0.756"
             style="fill:none;stroke:#000000;stroke-width:0.14;stroke-linecap:round;stroke-linejoin:round;stroke-miterlimit:10;stroke-opacity:1;stroke-dasharray:none"
             id="path6546"
             inkscape:connector-curvature="0" />
          <path
             d="m 346.84,72.03 2.37,-1.074"
             style="fill:none;stroke:#000000;stroke-width:0.14;stroke-linecap:round;stroke-linejoin:round;stroke-miterlimit:10;stroke-opacity:1;stroke-dasharray:none"
             id="path6548"
             inkscape:connector-curvature="0" />
          <path
             d="m 349.21,70.956 1.93,-1.536"
             style="fill:none;stroke:#000000;stroke-width:0.14;stroke-linecap:round;stroke-linejoin:round;stroke-miterlimit:10;stroke-opacity:1;stroke-dasharray:none"
             id="path6550"
             inkscape:connector-curvature="0" />
          <path
             d="m 351.14,69.42 1.61,-1.733"
             style="fill:none;stroke:#000000;stroke-width:0.14;stroke-linecap:round;stroke-linejoin:round;stroke-miterlimit:10;stroke-opacity:1;stroke-dasharray:none"
             id="path6552"
             inkscape:connector-curvature="0" />
          <path
             d="m 352.75,67.687 1.19,-2.073"
             style="fill:none;stroke:#000000;stroke-width:0.14;stroke-linecap:round;stroke-linejoin:round;stroke-miterlimit:10;stroke-opacity:1;stroke-dasharray:none"
             id="path6554"
             inkscape:connector-curvature="0" />
          <path
             d="M 353.94,65.614 354.8,63.32"
             style="fill:none;stroke:#000000;stroke-width:0.14;stroke-linecap:round;stroke-linejoin:round;stroke-miterlimit:10;stroke-opacity:1;stroke-dasharray:none"
             id="path6556"
             inkscape:connector-curvature="0" />
          <path
             d="m 354.8,63.32 0.22,-2.488"
             style="fill:none;stroke:#000000;stroke-width:0.14;stroke-linecap:round;stroke-linejoin:round;stroke-miterlimit:10;stroke-opacity:1;stroke-dasharray:none"
             id="path6558"
             inkscape:connector-curvature="0" />
          <path
             d="m 355.02,60.832 0,-41.571"
             style="fill:none;stroke:#000000;stroke-width:0.14;stroke-linecap:round;stroke-linejoin:round;stroke-miterlimit:10;stroke-opacity:1;stroke-dasharray:none"
             id="path6560"
             inkscape:connector-curvature="0" />
          <path
             d="M 355.02,19.261 354.8,16.772"
             style="fill:none;stroke:#000000;stroke-width:0.14;stroke-linecap:round;stroke-linejoin:round;stroke-miterlimit:10;stroke-opacity:1;stroke-dasharray:none"
             id="path6562"
             inkscape:connector-curvature="0" />
          <path
             d="m 354.8,16.772 -0.86,-2.293"
             style="fill:none;stroke:#000000;stroke-width:0.14;stroke-linecap:round;stroke-linejoin:round;stroke-miterlimit:10;stroke-opacity:1;stroke-dasharray:none"
             id="path6564"
             inkscape:connector-curvature="0" />
          <path
             d="M 353.94,14.479 352.75,12.43"
             style="fill:none;stroke:#000000;stroke-width:0.14;stroke-linecap:round;stroke-linejoin:round;stroke-miterlimit:10;stroke-opacity:1;stroke-dasharray:none"
             id="path6566"
             inkscape:connector-curvature="0" />
          <path
             d="m 352.75,12.43 -1.61,-1.757"
             style="fill:none;stroke:#000000;stroke-width:0.14;stroke-linecap:round;stroke-linejoin:round;stroke-miterlimit:10;stroke-opacity:1;stroke-dasharray:none"
             id="path6568"
             inkscape:connector-curvature="0" />
          <path
             d="M 351.14,10.673 349.21,9.1608"
             style="fill:none;stroke:#000000;stroke-width:0.14;stroke-linecap:round;stroke-linejoin:round;stroke-miterlimit:10;stroke-opacity:1;stroke-dasharray:none"
             id="path6570"
             inkscape:connector-curvature="0" />
          <path
             d="M 349.21,9.1608 346.84,8.063"
             style="fill:none;stroke:#000000;stroke-width:0.14;stroke-linecap:round;stroke-linejoin:round;stroke-miterlimit:10;stroke-opacity:1;stroke-dasharray:none"
             id="path6572"
             inkscape:connector-curvature="0" />
          <path
             d="M 346.84,8.063 344.36,7.3067"
             style="fill:none;stroke:#000000;stroke-width:0.14;stroke-linecap:round;stroke-linejoin:round;stroke-miterlimit:10;stroke-opacity:1;stroke-dasharray:none"
             id="path6574"
             inkscape:connector-curvature="0" />
          <path
             d="M 344.36,7.3067 341.67,7.0871"
             style="fill:none;stroke:#000000;stroke-width:0.14;stroke-linecap:round;stroke-linejoin:round;stroke-miterlimit:10;stroke-opacity:1;stroke-dasharray:none"
             id="path6576"
             inkscape:connector-curvature="0" />
          <path
             d="m 341.67,7.0871 -92.36,0"
             style="fill:none;stroke:#000000;stroke-width:0.14;stroke-linecap:round;stroke-linejoin:round;stroke-miterlimit:10;stroke-opacity:1;stroke-dasharray:none"
             id="path6578"
             inkscape:connector-curvature="0" />
          <path
             d="M 249.31,7.0871 246.6,7.3067"
             style="fill:none;stroke:#000000;stroke-width:0.14;stroke-linecap:round;stroke-linejoin:round;stroke-miterlimit:10;stroke-opacity:1;stroke-dasharray:none"
             id="path6580"
             inkscape:connector-curvature="0" />
          <path
             d="M 246.6,7.3067 244.14,8.063"
             style="fill:none;stroke:#000000;stroke-width:0.14;stroke-linecap:round;stroke-linejoin:round;stroke-miterlimit:10;stroke-opacity:1;stroke-dasharray:none"
             id="path6582"
             inkscape:connector-curvature="0" />
          <path
             d="m 244.14,8.063 -2.37,1.0978"
             style="fill:none;stroke:#000000;stroke-width:0.14;stroke-linecap:round;stroke-linejoin:round;stroke-miterlimit:10;stroke-opacity:1;stroke-dasharray:none"
             id="path6584"
             inkscape:connector-curvature="0" />
          <path
             d="m 241.77,9.1608 -1.95,1.5122"
             style="fill:none;stroke:#000000;stroke-width:0.14;stroke-linecap:round;stroke-linejoin:round;stroke-miterlimit:10;stroke-opacity:1;stroke-dasharray:none"
             id="path6586"
             inkscape:connector-curvature="0" />
          <path
             d="m 239.82,10.673 -1.61,1.757"
             style="fill:none;stroke:#000000;stroke-width:0.14;stroke-linecap:round;stroke-linejoin:round;stroke-miterlimit:10;stroke-opacity:1;stroke-dasharray:none"
             id="path6588"
             inkscape:connector-curvature="0" />
          <path
             d="m 238.21,12.43 -1.19,2.049"
             style="fill:none;stroke:#000000;stroke-width:0.14;stroke-linecap:round;stroke-linejoin:round;stroke-miterlimit:10;stroke-opacity:1;stroke-dasharray:none"
             id="path6590"
             inkscape:connector-curvature="0" />
          <path
             d="m 237.02,14.479 -0.86,2.293"
             style="fill:none;stroke:#000000;stroke-width:0.14;stroke-linecap:round;stroke-linejoin:round;stroke-miterlimit:10;stroke-opacity:1;stroke-dasharray:none"
             id="path6592"
             inkscape:connector-curvature="0" />
          <path
             d="m 236.16,16.772 -0.22,2.489"
             style="fill:none;stroke:#000000;stroke-width:0.14;stroke-linecap:round;stroke-linejoin:round;stroke-miterlimit:10;stroke-opacity:1;stroke-dasharray:none"
             id="path6594"
             inkscape:connector-curvature="0" />
          <path
             d="m 235.94,19.261 0,41.571"
             style="fill:none;stroke:#000000;stroke-width:0.14;stroke-linecap:round;stroke-linejoin:round;stroke-miterlimit:10;stroke-opacity:1;stroke-dasharray:none"
             id="path6596"
             inkscape:connector-curvature="0" />
          <path
             d="m 235.94,60.832 0.22,2.488"
             style="fill:none;stroke:#000000;stroke-width:0.14;stroke-linecap:round;stroke-linejoin:round;stroke-miterlimit:10;stroke-opacity:1;stroke-dasharray:none"
             id="path6598"
             inkscape:connector-curvature="0" />
          <path
             d="m 236.16,63.32 0.86,2.294"
             style="fill:none;stroke:#000000;stroke-width:0.14;stroke-linecap:round;stroke-linejoin:round;stroke-miterlimit:10;stroke-opacity:1;stroke-dasharray:none"
             id="path6600"
             inkscape:connector-curvature="0" />
          <path
             d="m 237.02,65.614 1.19,2.073"
             style="fill:none;stroke:#000000;stroke-width:0.14;stroke-linecap:round;stroke-linejoin:round;stroke-miterlimit:10;stroke-opacity:1;stroke-dasharray:none"
             id="path6602"
             inkscape:connector-curvature="0" />
          <path
             d="m 238.21,67.687 1.61,1.733"
             style="fill:none;stroke:#000000;stroke-width:0.14;stroke-linecap:round;stroke-linejoin:round;stroke-miterlimit:10;stroke-opacity:1;stroke-dasharray:none"
             id="path6604"
             inkscape:connector-curvature="0" />
          <path
             d="m 239.82,69.42 1.95,1.536"
             style="fill:none;stroke:#000000;stroke-width:0.14;stroke-linecap:round;stroke-linejoin:round;stroke-miterlimit:10;stroke-opacity:1;stroke-dasharray:none"
             id="path6606"
             inkscape:connector-curvature="0" />
          <path
             d="m 241.77,70.956 2.37,1.074"
             style="fill:none;stroke:#000000;stroke-width:0.14;stroke-linecap:round;stroke-linejoin:round;stroke-miterlimit:10;stroke-opacity:1;stroke-dasharray:none"
             id="path6608"
             inkscape:connector-curvature="0" />
          <path
             d="m 244.14,72.03 2.46,0.756"
             style="fill:none;stroke:#000000;stroke-width:0.14;stroke-linecap:round;stroke-linejoin:round;stroke-miterlimit:10;stroke-opacity:1;stroke-dasharray:none"
             id="path6610"
             inkscape:connector-curvature="0" />
          <path
             d="m 246.6,72.786 2.71,0.22"
             style="fill:none;stroke:#000000;stroke-width:0.14;stroke-linecap:round;stroke-linejoin:round;stroke-miterlimit:10;stroke-opacity:1;stroke-dasharray:none"
             id="path6612"
             inkscape:connector-curvature="0" />
          <path
             d="m 296.44,37.973 6.47,0 0,-1.415 -6.47,-0.098 0,1.513 z m -11.83,1.317 0,-6.733 3.03,0 0.85,0.097 0.76,0.098 0.41,0.122 0.54,0.098 0.44,0.219 0.53,0.439 0.44,0.537 0.22,0.439 0.1,0.561 0,0.537 -0.1,0.976 -0.22,0.756 -0.22,0.439 -0.31,0.317 -0.44,0.22 -0.64,0.439 -0.66,0.22 -0.75,0.122 -0.86,0.097 -3.12,0 z m 26.15,1.293 -0.85,-0.195 -0.98,-0.22 -0.75,-0.561 -0.64,-0.536 -0.31,-0.44 -0.22,-1.073 0.09,-1.757 0.44,-1.293 0.64,-1.097 0.75,-0.659 0.98,-0.415 0.85,-0.219 0.98,0.097 1.29,0.659 0.44,0.317 0.32,0.439 0.75,1.537 0.1,1.293 -0.1,1.318 -0.75,1.512 -0.32,0.317 -0.44,0.342 -0.44,0.219 -0.85,0.318 -0.98,0.097 z m -38.2,5.343 -3.12,-6.733 6.34,0 -3.22,6.733 z m 12.05,1.415 0,-6.538 1.93,0 1.1,0.122 0.95,0.219 1.07,0.439 0.44,0.415 0.54,0.878 0.12,1.196 -0.12,1.195 -0.54,0.879 -0.32,0.317 -0.66,0.439 -0.41,0.219 -0.98,0.098 -1.07,0.122 -2.05,0 z m 52.65,0.317 -0.32,-0.098 -0.34,-0.219 -0.32,-0.122 -1.07,-1.073 -0.32,-0.44 -0.44,-1.097 -0.22,-0.854 -0.32,-0.879 -0.09,-0.756 -0.12,-0.878 -0.1,-0.537 0,-1.195 0.1,-0.317 0,-0.659 0.12,-0.878 0.41,-1.733 0.22,-0.756 0.44,-1.098 0.63,-0.878 0.35,-0.317 0.41,-0.22 0.32,-0.219 0.66,-0.22 0.85,0 0.88,0.439 0.32,0.22 0.53,0.537 0.64,0.976 0.34,0.78 0.41,1.732 0.22,0.757 0.1,0.878 0,0.537 0.12,0.439 0,0.878 -0.12,0.415 0,0.561 -0.1,0.854 -0.22,0.78 -0.41,1.733 -0.34,0.756 -0.42,0.659 -1.07,1.073 -0.34,0.122 -0.32,0.219 -0.32,0.098 -0.75,0 z m -13.47,0 -0.32,-0.098 -0.31,-0.219 -0.32,-0.122 -0.34,-0.317 -0.42,-0.317 -0.34,-0.439 -0.19,-0.44 -0.44,-1.097 -0.32,-0.854 -0.22,-0.879 -0.32,-1.634 0,-2.269 0.1,-0.439 0.22,-1.757 0.22,-0.854 0.32,-0.756 0.44,-1.098 0.31,-0.439 0.22,-0.317 0.22,-0.219 0.32,-0.22 0.22,-0.22 0.85,-0.439 1.08,0 0.85,0.439 0.22,0.22 0.32,0.22 0.88,1.293 0.31,0.78 0.54,1.732 0.32,1.635 0,2.83 -0.32,1.634 -0.54,1.733 -0.31,0.756 -0.66,0.976 -0.76,0.756 -0.32,0.122 -0.31,0.219 -0.32,0.098 -0.88,0 z m -40.91,1.317 4.2,0 1.09,-0.122 1.08,-0.219 0.85,-0.317 0.85,-0.439 0.88,-0.854 0.32,-0.561 0.32,-1.074 0.12,-1.317 -0.12,-1.074 -0.44,-1.097 -0.64,-0.879 -0.44,-0.439 -0.53,-0.317 1.19,-0.439 0.86,-0.756 0.75,-0.976 0.44,-0.976 0.22,-1.098 -0.12,-0.976 -0.32,-1.098 -0.53,-0.975 -0.76,-0.757 -1.2,-0.756 -1.39,-0.439 -1.61,-0.098 -5.07,0 0,18.053 z m -10.44,0.22 0.53,0 8.52,-18.273 -1.73,-0.219 -3.22,6.855 -7.86,0 -3.24,-6.855 -1.71,0.219 8.71,18.273 z m -23.13,0 6.34,-14.687 6.35,14.687 1.83,-0.22 -8.08,-18.394 -0.32,0 -7.85,18.394 1.73,0.22 z m 88.26,0.098 1.08,-0.098 0.97,-0.342 0.76,-0.536 0.98,-1.098 0.75,-1.415 0.64,-1.415 0.31,-1.61 0.22,-1.537 0.1,-1.415 -0.1,-1.415 -0.22,-1.513 -0.41,-1.537 -0.54,-1.415 -0.75,-1.293 -0.98,-1.097 -1.29,-0.757 -1.52,-0.219 -1.51,0.219 -1.17,0.757 -0.98,1.097 -0.75,1.293 -0.54,1.537 -0.41,1.513 -0.22,1.537 -0.12,1.415 0.12,0.854 0,1.098 0.22,0.975 0.19,1.098 0.76,1.952 0.44,0.878 0.63,0.854 0.66,0.659 0.44,0.317 0.41,0.219 0.86,0.342 0.97,0.098 z m -13.34,0 1.51,-0.22 1.3,-0.756 0.95,-1.098 0.75,-1.415 0.54,-1.415 0.44,-1.61 0.1,-1.537 0.12,-1.415 -0.12,-1.415 -0.1,-1.513 -0.44,-1.537 -0.54,-1.415 -0.75,-1.293 -1.08,-1.097 -1.17,-0.757 -1.51,-0.219 -1.51,0.219 -1.3,0.757 -0.95,1.097 -0.75,1.293 -0.54,1.537 -0.44,1.513 -0.1,1.537 -0.12,1.415 0,0.854 0.12,1.098 0.2,0.975 0.22,1.098 0.66,1.952 1.07,1.732 0.76,0.659 0.75,0.536 0.86,0.342 1.07,0.098 z m -11.52,0.219 1.08,-1.098 -1.83,-1.61 -1.73,-1.854 -1.08,-1.317 -0.85,-1.415 -0.66,-1.513 0.44,0.439 0.54,0.317 0.66,0.22 0.85,0.317 0.97,0.122 1.08,-0.122 0.95,-0.219 0.88,-0.537 1.07,-0.854 0.64,-1.195 0.53,-1.415 0.12,-1.415 -0.22,-1.415 -0.43,-1.318 -0.76,-1.195 -1.07,-0.976 -1.39,-0.659 -1.61,-0.219 -1.3,0.122 -1.07,0.439 -0.98,0.634 -0.75,0.878 -0.64,0.976 -0.44,1.098 -0.31,1.195 0,1.293 0.09,1.757 0.54,1.83 0.66,1.634 0.95,1.635 2.37,3.049 1.29,1.293 1.41,1.098 z"
             style="fill:#ffffff;fill-opacity:1;fill-rule:evenodd;stroke:#ffffff;stroke-width:0.14;stroke-linecap:round;stroke-linejoin:round;stroke-miterlimit:10;stroke-opacity:1;stroke-dasharray:none"
             id="path6614"
             inkscape:connector-curvature="0" />
        </g>
      </g>
    </g>
  </g>
</svg>
